<svg xmlns="http://www.w3.org/2000/svg" width="532" height="108.427" viewBox="0 0 532 108.427">
  <defs>
    <style>
      .cls-1 {
        fill: #727afe;
      }

      .cls-2 {
        fill: #49a86b;
      }

      .cls-3 {
        fill: #f263b8;
      }

      .cls-4 {
        fill: #a7d7e9;
      }

      .cls-5 {
        fill: #f2bd32;
      }

      .cls-6 {
        fill: #020202;
      }

      .cls-7 {
        fill: #010101;
      }
    </style>
  </defs>
  <g id="Group_701" data-name="Group 701" transform="translate(1481 -4150.073)">
    <path id="Path_674" data-name="Path 674" class="cls-1" d="M25.652,23.251A12.826,12.826,0,1,1,12.826,10.424,12.827,12.827,0,0,1,25.652,23.251" transform="translate(-1481 4149.01)"/>
    <path id="Path_675" data-name="Path 675" class="cls-2" d="M64.8,23.251A12.826,12.826,0,1,1,51.971,10.424,12.827,12.827,0,0,1,64.8,23.251" transform="translate(-1484.991 4149.01)"/>
    <path id="Path_673" data-name="Path 673" class="cls-3" d="M25.652,67.685A12.826,12.826,0,1,1,12.826,54.858,12.827,12.827,0,0,1,25.652,67.685" transform="translate(-1481 4144.479)"/>
    <path id="Path_672" data-name="Path 672" class="cls-1" d="M64.8,67.685A12.826,12.826,0,1,1,51.971,54.858,12.827,12.827,0,0,1,64.8,67.685" transform="translate(-1484.991 4144.479)"/>
    <path id="Path_676" data-name="Path 676" class="cls-4" d="M102.884,23.251A12.826,12.826,0,1,1,90.058,10.424a12.827,12.827,0,0,1,12.827,12.827" transform="translate(-1488.875 4149.01)"/>
    <path id="Path_677" data-name="Path 677" class="cls-5" d="M143.087,23.251a12.826,12.826,0,1,1-12.827-12.827,12.827,12.827,0,0,1,12.827,12.827" transform="translate(-1492.974 4149.01)"/>
    <path id="Path_678" data-name="Path 678" class="cls-6" d="M172.3,42.13c0-12.4.11-24.806-.069-37.207-.054-3.678,1.113-4.954,4.848-4.92Q202.2.231,227.317,0c3.829-.038,4.787,1.413,4.776,5-.035,10.882.092,10.881-10.768,10.882-8.971,0-17.943.076-26.912-.039-2.663-.034-3.612.831-3.756,3.562-.751,14.206-.82,14.2,13.368,14.2,7.774,0,15.55.064,23.325-.02,2.559-.027,3.7.735,3.853,3.536.679,12.078.763,12.072-11.406,12.073-8.373,0-16.747.084-25.119-.036-2.828-.04-3.9.862-4.028,3.817-.666,15.141-.741,15.136,14.218,15.138,7.625,0,15.251.084,22.876-.032,2.971-.046,4.236.873,4.338,4.073.382,11.912.483,11.909-11.526,11.908-14.653,0-29.307-.1-43.958.069-3.373.038-4.392-1.046-4.354-4.345.147-12.55.059-25.1.058-37.655" transform="translate(-1498.561 4150.073)"/>
    <path id="Path_680" data-name="Path 680" class="cls-6" d="M360.02,61.409c-6.28,0-12.563.1-18.84-.04-3.169-.069-3.518,1.144-2.472,3.774,2.792,7.02,10.915,10.985,19.844,9.464a22.3,22.3,0,0,0,9.563-3.645c2.147-1.564,3.42-1.428,5.046.85,5.792,8.118,5.438,9.578-4.022,13.219a43.112,43.112,0,0,1-23.349,2.312c-16.307-2.867-26.7-17.131-25.088-34.467,1.555-16.778,14.289-28.091,30.556-28.691,16.39-.605,31.7,11.489,31.349,34.193-.037,2.359-1.072,3.075-3.3,3.045-6.428-.086-12.859-.031-19.289-.031Zm-7.781-11.348v.019c3.721,0,7.443-.057,11.163.019,2.758.057,3.294-1.089,2.5-3.589-1.761-5.562-7.189-9.3-13.816-9.3-6.447,0-12.178,3.948-13.8,9.4-.662,2.225-.186,3.466,2.339,3.457,3.87-.013,7.739,0,11.609,0" transform="translate(-1513.683 4147.609)"/>
    <path id="Path_683" data-name="Path 683" class="cls-7" d="M553.863,65.567c2.469-6.5,4.954-13,7.4-19.512,2.154-5.731,4.32-11.458,6.367-17.228.8-2.26,2.021-3.526,4.579-3.2a28.588,28.588,0,0,0,3.586.022c10.866,0,10.858-.005,6.866,9.863-8,19.794-16.129,39.54-23.953,59.4-5.72,14.526-15.342,16.873-28.6,15.938-2.232-.158-3.272-1.228-2.893-3.5.269-1.62.672-3.231.786-4.862.286-4.12.78-6.929,6.564-6.191,7.083.9,11.4-5.968,8.72-12.68q-10.632-26.638-21.315-53.257c-1.838-4.605-1.765-4.656,3.161-4.711,12.458-.138,12.443-.133,16.76,11.365q5.341,14.226,10.744,28.429l1.227.121" transform="translate(-1534.11 4147.464)"/>
    <path id="Path_681" data-name="Path 681" class="cls-6" d="M418.845,32.251A30.389,30.389,0,0,1,440.615,24.2c10.33.2,17.562,5.761,18.077,16.046.725,14.466.332,28.988.443,43.486.016,2.148-1.052,2.866-3.069,2.8-2.541-.081-5.086-.005-7.63-.009-5.739-.009-5.752-.013-5.759-5.963-.013-9.719.02-19.438-.018-29.157-.031-7.606-1.569-10.492-6.261-12.026-5.412-1.771-13.322.543-16.843,4.775-1.4,1.684-1.327,3.563-1.328,5.5,0,10.916-.084,21.831.048,32.745.037,2.991-.736,4.159-3.981,4.2-12.345.158-12.344.273-12.344-11.923,0-14.952.084-29.905-.063-44.856-.032-3.248.787-4.779,4.244-4.345a39.959,39.959,0,0,0,4.932.032c6.579,0,6.579,0,7.782,6.744" transform="translate(-1521.978 4147.606)"/>
    <path id="Path_679" data-name="Path 679" class="cls-7" d="M277.348,65.773q6.285-16.734,12.577-33.467c3.128-8.277,1.67-6.425,9.73-6.645,2.24-.06,4.493.136,6.721-.037,3.274-.254,3.368,1.051,2.313,3.646q-11.02,27.15-21.827,54.387c-.946,2.392-2.277,3-4.667,3.052-13.915.3-13.922.357-19.176-12.693-5.907-14.671-11.691-29.393-17.767-43.994-1.577-3.791-.6-4.445,3.111-4.436,12.793.03,12.762-.066,17.246,11.983,3.522,9.464,7.135,18.9,10.707,28.343l1.031-.14" transform="translate(-1505.933 4147.464)"/>
    <path id="Path_682" data-name="Path 682" class="cls-7" d="M484.828,55.852c0-4.63-.141-9.266.051-13.887.122-2.937-.929-3.908-3.85-3.846-6.377.136-6.043,1.056-6.071-6.39,0-.448,0-.9,0-1.344,0-6.376,0-6.512,6.307-6.575,2.707-.027,3.916-.863,3.57-3.6a5.993,5.993,0,0,1,0-1.343c.366-3.655-1.741-8.782.983-10.647,3.459-2.366,8.678-.641,13.136-.755,2.018-.051,2.5,1.249,2.522,2.916.033,3.137.14,6.275.036,9.408-.092,2.718.682,3.987,3.768,4.037,8.458.136,8.208.288,8.509,9,.152,4.395-1.239,5.653-5.538,5.445-6.7-.326-6.718-.06-6.723,6.765,0,6.422-.082,12.846.04,19.266.114,6.085,2.285,8.027,8.084,6.805,2.382-.5,3.323.019,3.79,2.153.1.437.186.877.308,1.308,2.514,8.838,1.135,10.8-8.266,11.5a38.239,38.239,0,0,1-6.194-.04c-8.525-.746-13.449-5.579-14.178-14.5-.425-5.19-.077-10.443-.077-15.669Z" transform="translate(-1529.429 4149.363)"/>
  </g>
</svg>
